<?xml version="1.0" encoding="utf-8"?>
<!-- Generator: Adobe Illustrator 21.0.2, SVG Export Plug-In . SVG Version: 6.00 Build 0)  -->
<svg version="1.1" xmlns="http://www.w3.org/2000/svg" xmlns:xlink="http://www.w3.org/1999/xlink" x="0px" y="0px"
	 viewBox="-50 -50 200 200" style="enable-background:new 0 0 80 80;" xml:space="preserve">
<style type="text/css">
		@keyframes rotate {
  0% { transform: rotate(0deg); fill:#f2672b }
  50%{ fill:#fbb819;}
  100% { transform: rotate(360deg); fill:#f2672b }
}

		@keyframes rotate2 {
  0% { transform: rotate(0deg); fill:#fbb819;}
  50%{ fill:#f2672b;}
  100% { transform: rotate(-360deg); fill:#fbb819}
}

		@keyframes rotate3 {
  0% { transform: rotate(0deg); fill:#f2672b }
  50%{ fill:#fbb819;}
  100% { transform: rotate(360deg); fill:#f2672b }
}

		@keyframes rotate0 {
  0% { fill:#fbb819;}
  50%{ fill:#f2672b;}
  100% { fill:#fbb819}
}

	.st0{fill:#f6f6f6;}
	.st1{fill:#d6d6d6;}
	.rotate1{animation: rotate 10s 0s linear infinite;}
	.rotate2{animation: rotate2 10s 0s linear infinite;}
	.rotate3{animation: rotate3 15s 0s linear infinite;}
	.rotate0{animation: rotate0 7s 0s linear infinite;}
</style>
<g id="Calque_1">
	<g>
		<path class="st0 rotate0" d="M0.3,6.4c-3.8,0-6.8-3.1-6.8-6.8s3.1-6.8,6.8-6.8c3.8,0,6.8,3.1,6.8,6.8S4,6.4,0.3,6.4z M0.3-3.1
			c-1.5,0-2.8,1.2-2.8,2.8s1.2,2.8,2.8,2.8C1.8,2.4,3,1.2,3-0.4S1.8-3.1,0.3-3.1z"/>
	</g>
</g>
<g id="Calque_2">
	<g>
		<path class="st1 rotate1" d="M0.3,15.1c-1.8,0-3.6-0.3-5.3-0.9C-11,11.9-15,6.2-15-0.2c0-6.4,4-12.1,10-14.3c1-0.4,2.2,0.1,2.6,1.2
			c0.4,1-0.1,2.2-1.2,2.6C-8-9.1-11-4.8-11-0.2c0,4.7,2.9,8.9,7.3,10.5c2.4,0.9,5.2,0.9,7.6,0.1c4.5-1.6,7.5-5.8,7.5-10.6
			s-3-9-7.5-10.6c-1.1-0.4-1.6-1.5-1.2-2.6c0.4-1.1,1.5-1.6,2.6-1.2c6.1,2.1,10.2,7.9,10.2,14.4c0,6.5-4.1,12.3-10.2,14.4
			C3.7,14.8,2,15.1,0.3,15.1z"/>
	</g>
</g>
<g id="Calque_3">
	<g>
		<path class="st0 rotate2" d="M4.6,22.7c-0.9,0-1.8-0.7-2-1.6C2.4,20,3.1,19,4.2,18.7C13.1,16.9,19.6,9,19.6-0.2S13.1-17.2,4.2-19
			c-2.7-0.5-5.5-0.5-8.1,0.1c-8.7,2-15,9.9-15,18.8c0,9.1,6.2,16.8,15,18.8c1.1,0.2,1.8,1.3,1.5,2.4c-0.2,1.1-1.3,1.8-2.4,1.5
			c-10.7-2.4-18.1-11.7-18.1-22.7c0-10.8,7.6-20.4,18.1-22.7c3.1-0.7,6.5-0.8,9.8-0.1c10.8,2.2,18.7,11.8,18.7,22.8
			c0,11-7.8,20.6-18.7,22.8C4.9,22.7,4.7,22.7,4.6,22.7z"/>
	</g>
</g>
<g id="Calque_4">
	<g>
		<path class="st0 rotate3" d="M0.4,31c-1.6,0-3.3-0.1-5-0.4c-15.2-2.5-26.1-15.4-26.1-30.8c0-15.4,11-28.3,26.1-30.8
			c1.1-0.2,2.1,0.6,2.3,1.7c0.2,1.1-0.6,2.1-1.7,2.3c-13.2,2.1-22.8,13.4-22.8,26.8c0,13.4,9.6,24.6,22.8,26.8
			c2.8,0.4,5.6,0.5,8.3,0.1c13.2-1.9,23.2-13.5,23.2-26.8c0-13.4-10-24.9-23.2-26.8c-1.1-0.2-1.9-1.2-1.7-2.3
			c0.2-1.1,1.2-1.9,2.3-1.7c15.2,2.2,26.6,15.5,26.6,30.8S20.1,28.5,4.9,30.7C3.4,30.9,1.9,31,0.4,31z"/>
	</g>
</g>
</svg>
