<?xml version="1.0" encoding="utf-8"?>
<!-- Generator: Adobe Illustrator 21.0.2, SVG Export Plug-In . SVG Version: 6.00 Build 0)  -->
<svg version="1.1" id="Calque_1" xmlns="http://www.w3.org/2000/svg" xmlns:xlink="http://www.w3.org/1999/xlink" x="0px" y="0px"
	 viewBox="0 0 1403 1396" style="enable-background:new 0 0 1403 1396;" xml:space="preserve">
<style type="text/css">
	.st0{fill:#232323;}
	.st1{fill:#232323;stroke:#FFFFFF;stroke-width:3;stroke-linecap:round;stroke-linejoin:round;}
</style>
<g>
	<g>
		<path class="st0" d="M705.2,1027.3c-40.3,0-79.5-7-116.4-20.8c-130.8-48.4-218.8-174.7-218.8-314.4c0-139.6,88-266,218.9-314.5
			c23-8.4,48.4,3.2,56.9,26.2c8.5,22.9-3.2,48.4-26.2,56.9c-96.4,35.6-161.1,128.6-161.1,231.4c0,102.8,64.8,195.8,161.1,231.4
			c52.8,19.7,114,20.2,166.3,1.6c99.4-34.3,165.9-127.9,165.9-233s-66.5-198.8-165.5-232.9c-23.1-8-35.4-33.1-27.4-56.3
			c8-23.1,33.1-35.5,56.3-27.4c134.7,46.4,225.2,173.6,225.2,316.6c0,143-90.5,270.2-225.2,316.6
			C780.6,1021,743.4,1027.3,705.2,1027.3z"/>
	</g>
	<g>
		<path class="st0" d="M800.7,1194.9c-20.6,0-39.1-14.5-43.3-35.4c-4.9-24,10.6-47.3,34.6-52.2c196.6-39.9,339.3-214.5,339.3-415.2
			S988.6,316.9,792,276.9c-59.8-11.6-121.6-10.7-177.8,2.1c-191.3,43-330.1,216.7-330.1,413.1c0,199.5,135.6,369.3,329.9,413
			c23.8,5.4,38.8,29,33.5,52.9c-5.4,23.8-29.1,38.8-52.9,33.5c-234.9-52.9-399-258.2-399-499.4c0-237.4,167.8-447.4,399-499.4
			c67.8-15.6,142.1-16.8,214.7-2.6c238,48.4,410.5,259.5,410.5,502c0,242.6-172.5,453.7-410.2,501.9
			C806.6,1194.6,803.6,1194.9,800.7,1194.9z"/>
	</g>
	<g>
		<path class="st0" d="M707.5,1377c-36.1,0-73.2-3-110.2-8.8C264.3,1314.3,22.6,1030,22.6,692.1c0-337.8,241.6-622.2,574.5-676
			c24.1-4.2,46.9,12.4,50.8,36.6c3.9,24.1-12.5,46.9-36.6,50.7c-289.8,46.9-500.2,294.5-500.2,588.7
			c0,294.2,210.3,541.8,500.2,588.7c61.7,9.7,122.6,10.1,183.1,1.4c290.6-42.4,509.8-296.1,509.8-590.1c0-294-219.2-547.6-509.8-590
			c-24.2-3.5-40.9-26-37.4-50.2c3.5-24.2,26.1-41,50.2-37.4c333.8,48.7,585.6,340,585.6,677.6s-251.7,629-585.6,677.7
			C774.1,1374.6,740.5,1377,707.5,1377z"/>
	</g>
	<g>
		<path class="st1" d="M707.6,692.2"/>
	</g>
	<g>
		<path class="st0" d="M705.2,837.2c-82.5,0-149.6-67.1-149.6-149.6s67.1-149.6,149.6-149.6c82.5,0,149.6,67.1,149.6,149.6
			S787.7,837.2,705.2,837.2z M705.2,626.4c-33.7,0-61.1,27.4-61.1,61.1s27.4,61.1,61.1,61.1c33.7,0,61.1-27.4,61.1-61.1
			S738.9,626.4,705.2,626.4z"/>
	</g>
</g>
</svg>
